# xmcd
#
# Track frame offsets:
#	150
#	10645
#	21357
#	33637
#	43960
#	57757
#	72072
#	83720
#	96772
#	107435
#	118660
#	128852
#	142667
#	153280
#	166792
#	175272
#	184672
#	194300
#	203642
#	216437
#	227205
#	237487
#	249020
#	260587
# Disc length: 3627 seconds
# Revision: 2
# Processed by: cddbd v1.5.1PL0 Copyright (c) Steve Scherf et al.
#
# Submitted via: libkcddb 0.10
#
DISCID=3f0e2918
DTITLE=Orioles - The Jubilee Recordings [CD 6)
DYEAR=1900
DGENRE=Unknown
TTITLE0=Run Around
TTITLE1=Count Your Blessings Instead Of Sheep
TTITLE2=Fair Exchange
TTITLE3=I Love You Mostly
TTITLE4=I Need You Baby
TTITLE5=Moody Over You
TTITLE6=Please Sing My Blues Tonight
TTITLE7=Cigareetos
TTITLE8=Sitting Here
TTITLE9=Bring The Money Home
TTITLE10=Angel
TTITLE11=Don't Cry
TTITLE12=Sure Fire
TTITLE13=Danger
TTITLE14=Crying In The Chapel
TTITLE15=Tell Me So
TTITLE16=At Night
TTITLE17=Forgive And Forget
TTITLE18=Come On Home
TTITLE19=The First Of Summer
TTITLE20=Panama Joe
TTITLE21=Night And Day
TTITLE22=Shimmy Time
TTITLE23=So Long
EXTD=
EXTT0=
EXTT1=
EXTT2=
EXTT3=
EXTT4=
EXTT5=
EXTT6=
EXTT7=
EXTT8=
EXTT9=
EXTT10=
EXTT11=
EXTT12=
EXTT13=
EXTT14=
EXTT15=
EXTT16=
EXTT17=
EXTT18=
EXTT19=
EXTT20=
EXTT21=
EXTT22=
EXTT23=
PLAYORDER=
